<svg width="35" height="28" viewBox="0 0 35 28" fill="none" xmlns="http://www.w3.org/2000/svg">
<path d="M32.7777 0.00012207H2.22225C0.995033 0.00012207 0 1.02352 0 2.28581V25.7144C0 26.9766 0.995033 28 2.22225 28H32.7777C34.005 28 35 26.9766 35 25.7144V2.28581C35 1.02352 34.005 0.00012207 32.7777 0.00012207ZM32.7777 2.28581V18.9092L28.3982 14.8138C27.74 14.1984 26.7277 14.2229 26.0988 14.8704L21.6665 19.4286L12.9272 8.69149C12.2666 7.88005 11.0566 7.87208 10.3861 8.67378L2.22225 18.4327V2.28581H32.7777ZM23.3334 8.2858C23.3334 6.54979 24.701 5.14293 26.3888 5.14293C28.0766 5.14293 29.4444 6.54979 29.4444 8.2858C29.4444 10.0218 28.0767 11.4286 26.3888 11.4286C24.7011 11.4287 23.3334 10.0218 23.3334 8.2858Z" fill="white"/>
</svg>
