<?xml version="1.0" encoding="UTF-8"?> <!-- Generator: Adobe Illustrator 16.0.0, SVG Export Plug-In . SVG Version: 6.00 Build 0) --> <svg xmlns="http://www.w3.org/2000/svg" xmlns:xlink="http://www.w3.org/1999/xlink" id="Capa_1" x="0px" y="0px" width="2728px" height="787px" viewBox="0 0 2728 787" xml:space="preserve"> <path fill="#1B86C0" d="M343.664,406.016c0.731-1.315,11.255-18.297,14.308-41.418c2.774-20.997-2.889-51.97-1.256-76.564 c0.811-12.224,3.174-23.889,6.904-35.019c0.001,0,21.964-36.02-4.394-46.314c-16.509-6.446-77.479,9.581-79.826,10.294 l-12.471,3.562c15.533-24.685,31.705-48.947,46.267-71.214c41.584-63.595,76.043-116.489,76.043-116.489 s34.46,52.895,76.043,116.489c42.097,64.375,97.667,145.421,112.323,205.219c28.034,114.428-58.734,225.45-184.378,226.121h-7.974 c-75.123-0.402-136.348-40.251-167.446-96.69c0,0,67.617,7.875,123.345-73.457L343.664,406.016z"></path> <path fill="#4CA43B" d="M273.689,91.61c23.236-11.669,48.216-20.169,74.394-24.962l-7.166,11.774 c-23.602,4.065-46.151,11.367-67.203,21.451L273.689,91.61z"></path> <path fill="#4CA43B" d="M626.879,455.281c-40.501,96.765-133.802,164.479-242.424,164.479c-80.115,0-151.892-36.836-200.299-94.991 c-14.958-49.188,1.864-70.683,1.864-70.683s18.276,13.063,48.196,7.153c42.065-8.307,100.218-43.895,102.418-116.727 c0,0-10.533-71.929,12.612-116.979l0,0c-23.437,0.958-128.469,9.28-180.925,81.585c-41.795,57.61,8.902,135.106,9.37,136.307 l1.927,5.647c0,0-8.808,22.833-9.514,55.914c-31.369-44.812-49.603-100.142-49.603-159.649c0-13.785,1.186-28.005,3.104-41.242l0,0 c20.589,3.068,31.538-3.001,31.538-3.001c22.548-32.005,63.635-54.598,63.635-54.598c15.062-25.981,12.425-64.011,12.425-64.011 c-7.907-54.598,22.593-80.203,22.593-80.203c-2.887,0.239-105.678,16.2-141.202,89.617c-28.24,58.363,6.777,107.312,6.777,107.312 c-3.319,17.962-6.4,36.371-6.4,55.354c0,162.623,127.717,294.45,285.268,294.45c116.736,0,217.095-72.375,261.26-176.03l0,0 C647.788,470.875,635.818,463.519,626.879,455.281L626.879,455.281z"></path> <path fill="#4CA43B" d="M640.004,278.876c8.572-5.664,19.448-10.474,29.729-12.96l0,0 C635.574,156.826,541.411,75.582,427.406,63.633L438.359,80.6C536.702,101.661,615.006,179.196,640.004,278.876L640.004,278.876z"></path> <g> <path fill="#159ED0" d="M735.242,450.621v-13.155c-6.202,5.433-13.489,9.661-21.861,12.685c-8.373,3.023-17.519,4.542-27.443,4.542 c-11.992,0-23.052-2.089-33.179-6.263c-10.13-4.175-18.915-9.97-26.356-17.385c-7.443-7.407-13.232-16.285-17.365-26.623 c-4.137-10.337-6.202-21.66-6.202-33.985c0-12.528,2.065-24.062,6.202-34.61c4.133-10.539,9.922-19.623,17.365-27.248 c7.441-7.622,16.279-13.573,26.512-17.857c10.233-4.277,21.551-6.419,33.954-6.419c9.302,0,18.087,1.307,26.356,3.913 c8.267,2.614,15.506,6.633,21.708,12.061v-11.902h47.752v162.246H735.242z M735.242,346.947c0-4.174-1.347-7.933-4.032-11.275 c-2.688-3.339-6.047-6.213-10.077-8.613c-4.03-2.401-8.271-4.23-12.713-5.483c-4.448-1.253-8.528-1.877-12.25-1.877 c-8.478,0-15.61,1.253-21.395,3.756c-5.791,2.506-10.441,6.06-13.954,10.649c-3.519,4.595-6.1,9.975-7.753,16.133 c-1.656,6.16-2.479,12.896-2.479,20.2c0,15.035,3.512,26.938,10.543,35.709c7.024,8.769,18.395,13.152,34.108,13.152 c4.34,0,8.885-0.674,13.644-2.036c4.753-1.353,9.041-3.391,12.869-6.107c3.823-2.712,7.024-5.951,9.612-9.71 c2.583-3.757,3.877-8.143,3.877-13.155V346.947z"></path> <path fill="#159ED0" d="M983.462,472.391c-1.969,8.872-5.844,16.858-11.628,23.959c-5.792,7.099-13.853,12.891-24.187,17.386 c-10.34,4.486-23.877,6.734-40.622,6.734c-9.099,0-18.092-0.783-26.979-2.351c-8.89-1.565-16.953-4.383-24.187-8.454 c-7.239-4.075-13.285-9.555-18.138-16.445c-4.861-6.893-7.807-15.559-8.84-25.999h47.134c1.24,6.892,4.754,12.632,10.543,17.227 c5.785,4.592,12.093,6.892,18.916,6.892c6.202,0,11.42-1.252,15.66-3.759c4.235-2.506,7.645-5.794,10.232-9.866 c2.581-4.071,4.496-8.613,5.738-13.625c1.239-5.01,1.859-10.022,1.859-15.032v-11.59c-6.203,5.433-13.489,9.661-21.86,12.685 c-8.373,3.023-17.519,4.542-27.443,4.542c-11.992,0-23.052-2.089-33.18-6.263c-10.13-4.175-18.915-9.97-26.355-17.385 c-7.443-7.407-13.232-16.285-17.366-26.623c-4.137-10.337-6.203-21.66-6.203-33.985c0-12.528,2.065-24.062,6.203-34.61 c4.134-10.539,9.922-19.623,17.366-27.248c7.441-7.622,16.279-13.573,26.512-17.857c10.232-4.277,21.551-6.419,33.954-6.419 c9.302,0,18.088,1.307,26.357,3.913c8.266,2.614,15.506,6.633,21.707,12.061v-11.902h47.752v157.548 C986.407,454.693,985.424,463.511,983.462,472.391z M938.964,346.947c0-4.174-1.346-7.933-4.031-11.275 c-2.689-3.339-6.047-6.213-10.078-8.613c-4.031-2.401-8.271-4.23-12.713-5.483c-4.448-1.253-8.527-1.877-12.25-1.877 c-8.478,0-15.61,1.253-21.395,3.756c-5.791,2.506-10.441,6.06-13.953,10.649c-3.52,4.595-6.101,9.975-7.753,16.133 c-1.657,6.16-2.48,12.896-2.48,20.2c0,15.035,3.512,26.938,10.543,35.709c7.024,8.769,18.396,13.152,34.108,13.152 c4.34,0,8.837-0.674,13.489-2.036c4.651-1.353,8.938-3.391,12.868-6.107c3.924-2.712,7.133-5.951,9.612-9.71 c2.481-3.757,3.722-8.143,3.722-13.155L938.964,346.947z"></path> <path fill="#159ED0" d="M1123.153,450.621v-23.177c-6.202,9.817-13.595,16.812-22.171,20.986 c-8.582,4.174-18.762,6.263-30.544,6.263c-8.271,0-15.813-1.307-22.636-3.916c-6.821-2.606-12.664-6.366-17.519-11.276 c-4.86-4.904-8.634-10.751-11.319-17.538c-2.688-6.784-4.031-14.459-4.031-23.022V288.375h47.753v90.52 c0,4.807,0.406,9.451,1.23,13.937c0.824,4.495,2.264,8.458,4.324,11.903c2.052,3.447,4.882,6.162,8.483,8.145 c3.595,1.986,8.173,2.974,13.73,2.974c5.756,0,10.689-1.094,14.801-3.289c4.115-2.191,7.51-5.112,10.186-8.769 c2.673-3.651,4.625-7.881,5.862-12.685c1.231-4.801,1.851-9.917,1.851-15.35v-87.386h47.752v162.246H1123.153z"></path> <path fill="#159ED0" d="M1333.212,450.621v-13.155c-6.204,5.433-13.489,9.661-21.863,12.685c-8.371,3.023-17.519,4.542-27.44,4.542 c-11.994,0-23.054-2.089-33.18-6.263c-10.131-4.175-18.916-9.97-26.357-17.385c-7.443-7.407-13.232-16.285-17.365-26.623 c-4.138-10.337-6.203-21.66-6.203-33.985c0-12.528,2.065-24.062,6.203-34.61c4.133-10.539,9.921-19.623,17.365-27.248 c7.441-7.622,16.279-13.573,26.512-17.857c10.232-4.277,21.55-6.419,33.954-6.419c9.302,0,18.088,1.307,26.356,3.913 c8.266,2.614,15.505,6.633,21.706,12.061v-11.902h47.752v162.246H1333.212z M1333.212,346.947c0-4.174-1.349-7.933-4.032-11.275 c-2.689-3.339-6.046-6.213-10.078-8.613c-4.03-2.401-8.271-4.23-12.713-5.483c-4.447-1.253-8.528-1.877-12.249-1.877 c-8.478,0-15.608,1.253-21.396,3.756c-5.79,2.506-10.439,6.06-13.954,10.649c-3.518,4.595-6.099,9.975-7.752,16.133 c-1.656,6.16-2.48,12.896-2.48,20.2c0,15.035,3.514,26.938,10.543,35.709c7.026,8.769,18.396,13.152,34.11,13.152 c4.34,0,8.885-0.674,13.642-2.036c4.753-1.353,9.043-3.391,12.87-6.107c3.822-2.712,7.025-5.951,9.612-9.71 c2.581-3.757,3.877-8.143,3.877-13.155V346.947z"></path> <path fill="#1D7FC3" d="M1597.657,370.437c0,12.326-2.088,23.648-6.261,33.985c-4.181,10.338-10.025,19.216-17.544,26.623 c-7.513,7.416-16.391,13.21-26.622,17.385c-10.232,4.174-21.403,6.263-33.512,6.263c-10.025,0-19.263-1.519-27.724-4.542 c-8.453-3.024-15.715-7.252-21.768-12.685v77.679h-48.231v-226.77h47.919v11.902c6.472-5.428,13.884-9.446,22.238-12.061 c8.351-2.606,17.227-3.913,26.625-3.913c12.524,0,23.963,2.142,34.294,6.419c10.336,4.284,19.268,10.235,26.78,17.857 c7.519,7.625,13.363,16.709,17.544,27.248C1595.569,346.374,1597.657,357.909,1597.657,370.437z M1549.425,370.437 c0-7.304-0.836-14.04-2.506-20.2c-1.676-6.158-4.284-11.538-7.831-16.133c-3.554-4.589-8.302-8.143-14.249-10.649 c-5.955-2.503-13.109-3.756-21.459-3.756c-3.758,0-7.883,0.624-12.372,1.877c-4.495,1.253-8.771,3.083-12.842,5.483 c-4.073,2.4-7.467,5.274-10.18,8.613c-2.719,3.342-4.071,7.102-4.071,11.275v41.343c0,5.013,1.301,9.398,3.913,13.155 c2.611,3.759,5.849,6.998,9.714,9.71c3.858,2.716,8.189,4.754,12.996,6.107c4.8,1.362,9.396,2.036,13.784,2.036 c15.862,0,27.353-4.384,34.453-13.152C1545.87,397.374,1549.425,385.472,1549.425,370.437z"></path> <path fill="#1D7FC3" d="M1622.014,450.621V225.104h48.238v225.517H1622.014z"></path> <path fill="#1D7FC3" d="M1825.333,450.621v-13.155c-6.262,5.433-13.62,9.661-22.081,12.685c-8.454,3.023-17.697,4.542-27.717,4.542 c-12.113,0-23.286-2.089-33.518-6.263c-10.232-4.175-19.102-9.97-26.623-17.385c-7.518-7.407-13.367-16.285-17.537-26.623 c-4.185-10.337-6.267-21.66-6.267-33.985c0-12.528,2.082-24.062,6.267-34.61c4.17-10.539,10.02-19.623,17.537-27.248 c7.521-7.622,16.444-13.573,26.782-17.857c10.337-4.277,21.769-6.419,34.295-6.419c9.401,0,18.272,1.307,26.628,3.913 c8.349,2.614,15.656,6.633,21.921,12.061v-11.902h48.239v162.246H1825.333z M1825.333,346.947c0-4.174-1.359-7.933-4.07-11.275 c-2.714-3.339-6.108-6.213-10.18-8.613c-4.071-2.401-8.354-4.23-12.843-5.483c-4.489-1.253-8.614-1.877-12.367-1.877 c-8.566,0-15.772,1.253-21.615,3.756c-5.849,2.506-10.544,6.06-14.098,10.649c-3.547,4.595-6.159,9.975-7.824,16.133 c-1.677,6.16-2.506,12.896-2.506,20.2c0,15.035,3.548,26.938,10.647,35.709c7.097,8.769,18.58,13.152,34.453,13.152 c4.384,0,8.973-0.674,13.78-2.036c4.799-1.353,9.13-3.391,13.002-6.107c3.859-2.712,7.096-5.951,9.708-9.71 c2.606-3.757,3.912-8.143,3.912-13.155V346.947z"></path> <path fill="#1D7FC3" d="M2012.248,450.621v-90.207c0-5.01-0.364-9.757-1.094-14.25c-0.736-4.49-2.142-8.458-4.231-11.902 c-2.088-3.447-4.958-6.158-8.611-8.146c-3.654-1.982-8.297-2.976-13.938-2.976c-6.055,0-11.173,1.1-15.345,3.288 c-4.183,2.194-7.571,5.169-10.184,8.928c-2.612,3.76-4.537,8.095-5.79,12.999c-1.252,4.91-1.881,9.973-1.881,15.191v87.074h-48.233 V288.375h47.92v23.178c6.473-9.811,13.985-16.807,22.552-20.984c8.561-4.176,18.791-6.266,30.693-6.266 c8.349,0,16.026,1.307,23.021,3.913c6.996,2.614,12.945,6.375,17.857,11.279c4.9,4.907,8.713,10.805,11.43,17.697 c2.713,6.889,4.072,14.617,4.072,23.177v110.251H2012.248z"></path> <path fill="#1D7FC3" d="M2235.059,416.636c-4.495,8.251-10.238,15.191-17.231,20.83c-6.995,5.639-14.986,9.919-23.959,12.844 c-8.983,2.921-18.691,4.383-29.129,4.383c-12.326,0-23.597-2.089-33.828-6.263c-10.231-4.175-19.057-10.026-26.469-17.542 c-7.414-7.515-13.208-16.392-17.381-26.622c-4.184-10.229-6.266-21.504-6.266-33.83c0-12.316,2.082-23.749,6.266-34.298 c4.173-10.539,9.967-19.623,17.381-27.248c7.412-7.62,16.337-13.626,26.78-18.009c10.442-4.386,21.928-6.578,34.454-6.578 c9.812,0,19.208,1.307,28.191,3.913c8.973,2.614,17.016,6.53,24.117,11.749c7.095,5.219,12.892,11.743,17.385,19.574 c4.489,7.831,7.255,16.968,8.302,27.408l-113.074,41.343c1.666,8.772,5.273,16.132,10.803,22.083 c5.531,5.951,13.626,8.925,24.276,8.925c8.977,0,16.392-2.974,22.238-8.925c5.841-5.951,9.189-13.311,10.024-22.083h45.732 C2242.42,398.942,2239.541,408.39,2235.059,416.636z M2183.532,324.081c-4.807-2.921-10.442-4.383-16.916-4.383 c-6.059,0-11.272,1.047-15.66,3.13c-4.385,2.088-8.097,4.854-11.121,8.301c-3.03,3.445-5.325,7.469-6.889,12.059 c-1.564,4.595-2.56,9.396-2.978,14.409c0,0.42-0.053,0.891-0.154,1.409c-0.11,0.524-0.158,0.995-0.158,1.409l64.523-23.804 C2191.881,331.183,2188.332,327.008,2183.532,324.081z"></path> <path fill="#1D7FC3" d="M2317.732,318.756v131.865h-48.234V318.756h-16.914v-30.381h16.914v-33.2l47.922-21.927v55.127h17.227 v30.381H2317.732z"></path> <path fill="#1D7FC3" d="M2593.58,450.621V225.104h48.233v225.517H2593.58z"></path> <circle fill="#1D7FC3" cx="2382.182" cy="424.158" r="33.016"></circle> <path fill="#1D7FC3" d="M2561.452,407.44c-7.672,5.207-16.927,8.248-26.898,8.248c-26.476,0-47.944-21.468-47.944-47.946 c0-26.481,21.469-47.944,47.944-47.944c9.6-0.002,18.543,2.818,26.039,7.678l8.147-38.975 c-12.654-6.801-27.128-10.661-42.501-10.661c-49.649,0-89.898,40.252-89.898,89.902c0,49.653,40.249,89.9,89.898,89.9 c15.149,0,29.431-3.747,41.954-10.366L2561.452,407.44z"></path> </g> <g> <path fill="#1D7FC3" d="M1747.669,524.853l17.978-3.407c17.492-3.156,47.136-6.316,58.312,8.51 c6.075,7.772,5.59,15.788,3.649,23.081c-8.509,27.941-54.427,53.453-110.067,63.661l-7.537,25.751 c-4.374,15.553-2.671,16.77-1.944,18.228c2.188,2.915,3.16,1.944,1.944,5.83c-0.487,3.155-1.215,3.893-4.859,4.377 c-3.155,0.241-7.529-0.244-9.964-2.674c-4.126-4.371-2.188-15.797,1.945-29.646l5.589-19.924c-4.859,1.459-5.1-0.969-5.1-0.969 c0-2.922,0.966-4.376,3.641-6.562c2.43-2.916,0.733-1.704,5.587-6.319l17.984-60.984c-9.963,2.915-16.282,4.127-24.298,9.961 h-3.403c-2.672-3.403,1.215-9.476,3.889-10.938c2.671-1.46,2.671-1.46,2.915-2.913c1.215-3.645,2.913-3.888,4.374-4.621 c4.374-1.939,7.29-2.43,21.14-6.075c0,0,0.727-0.968,1.699-6.072c0.976-5.103,2.187-5.103,2.916-6.071 c0.489,0,5.101-0.485,7.049-1.462c3.399-0.971,4.374-0.486,7.774,1.944C1749.365,518.29,1747.669,524.853,1747.669,524.853z M1811.571,536.271c-4.133-4.618-15.067-9.236-41.066-3.159l-29.398,7.531l-20.165,62.69c51.506-9.961,82.852-29.646,92.082-51.268 C1815.214,546.962,1816.185,541.129,1811.571,536.271z"></path> <path fill="#1D7FC3" d="M1847.783,618.641c0,0,4.128-8.503,5.831-12.395c1.942-4.86,3.159,0.492,3.159,0.492 c-0.976,10.445-21.627,55.153-38.637,62.684c-5.345,2.188-10.205,0.24-12.148-1.212c-4.13-2.917-6.074-10.449-6.316-16.522 c-8.748,11.904-16.038,22.598-27.701,23.326c-3.89,0.239-7.531-1.459-9.964-5.103c-4.376-6.805-0.971-17.739,5.103-34.749 l5.105-14.09c1.944-5.347,1.703-4.618,3.644-10.207c1.46-4.375,1.216-7.291,6.805-8.261c2.916-0.244,6.071,0.97,7.286,2.671 c2.922,4.371-0.242,5.834-7.776,20.897l-1.939,3.89c-8.991,18.223-13.365,30.614-7.29,33.285 c6.805,3.159,21.38-12.388,31.104-35.474c0,0,9.23-19.925,11.417-26.488c1.458-3.642,0-5.829,5.588-7.527 c2.434-0.729,5.349-0.485,7.046,0.971c1.703,1.453,2.675,3.4,2.429,5.83c-0.482,1.701-4.37,5.831-5.344,7.534 c-7.046,11.176-7.533,13.605-9.961,19.195c-7.29,16.279-7.29,27.457-1.459,29.402 C1821.537,659.219,1836.117,643.668,1847.783,618.641z"></path> <path fill="#1D7FC3" d="M1875.969,611.109c1.457,2.674,3.396,5.101-4.378,18.465l-6.801,11.664 c-3.643,6.803-6.804,14.575-5.101,18.952c0.726,2.187,3.4,3.401,7.773,2.187c10.937-3.158,26.729-26.242,34.016-45.923l3.159-8.261 c2.188-6.074,6.318-2.918,3.646,4.86c1.459,6.315-21.627,53.453-43.008,59.772c-3.887,1.459-9.723,0.484-13.364-3.164 c-5.831-6.314-3.886-16.516,1.463-28.424l7.773-17.006c1.697-4.623,1.942-5.834-3.161-7.534l-5.35-1.948 c-8.26-2.188-10.2-3.641-6.07-14.819c1.699-4.619,4.859-17.01,8.019-17.982c0.968-0.241,3.887,0.731,5.104,1.46 c3.155,2.187,1.94,2.917,1.94,5.829c-0.241,6.074-2.918,12.397-3.158,13.608C1873.78,608.193,1874.509,608.68,1875.969,611.109z"></path> <path fill="#1D7FC3" d="M1889.091,650.717c0.242,3.159,2.916,5.097,5.83,5.097c9.476-0.241,19.198-16.033,35.234-43.004 l1.944-3.163c2.674-4.371,3.644-6.072,5.588-5.097c2.43,0.969,1.457,4.612,0.485,6.8c-0.485,2.189-0.727,4.376-2.188,6.563 c-7.048,11.904-18.709,31.344-27.699,41.549c-6.804,7.533-11.419,9.475-18.952,9.475c-5.587,0-9.965-3.4-11.417-6.801 c-3.887-8.504,0.483-18.71,7.531-34.503l9.719-21.872c1.943-4.616,1.943-6.561,6.803-6.802c1.943-0.241,4.128-0.241,5.35,0.241 c3.4,0.974,2.911,4.623,0.727,6.804C1912.172,608.434,1888.12,638.079,1889.091,650.717z M1930.001,565.736 c-1.946,0.976-6.56,1.702-9.961-0.485c-3.888-1.942-4.132-3.89-4.377-7.29c0-2.674,1.216-6.801,4.618-8.989 c5.344-3.646,13.361-1.213,15.062,5.345C1936.317,558.446,1935.587,563.064,1930.001,565.736z"></path> <path fill="#1D7FC3" d="M1934.773,651.688c9.959-1.213,18.952-11.666,26.485-24.055l1.938-3.159 c0.73-0.972,9.234-16.766,10.938-17.009c0.726,0,2.186,0.484,3.157,1.94c1.702,4.378-8.99,23.327-14.096,31.833 c-7.773,12.879-11.901,18.709-26.241,22.354c3.403,24.058-10.45,70.709-26.727,76.538c-4.133,1.703-11.421,0-15.309-2.185 c-8.989-5.346-5.103-25.516-1.459-39.122c15.309-59.288,55.646-149.187,55.646-149.187c2.914-8.752,3.399-10.452,4.859-12.879 c4.131-0.486,15.306-2.916,17.254,0.726c1.452,2.432-2.189,6.075-4.137,8.504l-4.613,5.104c-6.076,7.531-7.773,12.146-9.721,17.251 l-27.457,68.768C1932.585,640.996,1932.828,644.638,1934.773,651.688z M1927.726,674.768c0.243-9.475-3.887-11.42-5.105-13.605 c-2.187-3.401-0.971-1.7-4.854-5.1l-9.237,29.152c-8.505,26.488-16.522,43.013-2.914,45.928 C1914.846,733.327,1926.997,686.919,1927.726,674.768z"></path> <path fill="#1D7FC3" d="M1957.612,650.717c0.244,3.159,2.915,5.097,5.83,5.097c9.479-0.241,19.197-16.033,35.235-43.004 l1.941-3.163c2.674-4.371,3.646-6.072,5.589-5.097c2.435,0.969,1.457,4.612,0.487,6.8c-0.487,2.189-0.728,4.376-2.186,6.563 c-7.048,11.904-18.714,31.344-27.703,41.549c-6.801,7.533-11.417,9.475-18.95,9.475c-5.59,0-9.96-3.4-11.42-6.801 c-3.887-8.504,0.482-18.71,7.53-34.503l9.72-21.872c1.944-4.616,1.944-6.561,6.806-6.802c1.939-0.241,4.128-0.241,5.347,0.241 c3.399,0.974,2.914,4.623,0.727,6.804C1980.698,608.434,1956.64,638.079,1957.612,650.717z M1989.576,568.719 c-1.94,0.974-6.561,1.703-9.96-0.484c-3.89-1.943-4.134-3.891-4.376-7.291c0-2.673,1.212-6.8,4.614-8.989 c5.351-3.647,13.364-1.215,15.067,5.345C1995.893,561.43,1995.166,566.048,1989.576,568.719z"></path> <path fill="#1D7FC3" d="M1987.744,652.657c0.977,3.643,4.377,6.319,8.024,6.319c14.091,0,39.115-46.898,39.115-46.898 s2.189-5.832,5.101-5.34c3.164,0.241,2.189,3.644,1.461,6.071c-0.246,0.729-9.964,24.056-24.541,43.49 c-8.507,11.182-15.554,15.553-26.244,15.553c-4.372,0-10.444-2.916-13.364-9.476c-5.831-12.149,2.435-36.204,11.182-48.838 c4.129-6.316,15.305-22.596,24.055-23.328c3.401,0,3.887,1.459,5.586,2.185c2.188,0.978,5.344,1.463,6.562,5.349 c1.704,5.345-1.697,8.502-1.697,9.964c0,2.674-2.678,4.854-6.079,5.588c-2.432,0.729-5.104,0.487-10.207-2.431 C1998.678,617.184,1984.584,638.564,1987.744,652.657z"></path> <path fill="#1D7FC3" d="M2098.546,614.509c-0.485,2.431-10.448,28.188-28.425,47.142c-4.863,5.104-12.153,8.989-17.498,8.012 c-6.56-1.452-8.263-5.823-10.209-12.146c-7.53,8.02-12.871,18.225-26.236,16.525c-4.377-0.731-7.777-2.189-9.233-6.803 c-5.104-13.607,11.414-45.683,26.483-65.12c5.831-7.29,8.986-10.208,12.636-9.724c3.645,0.487,9.721,1.22,12.632,3.649 c1.947,1.456,3.4,6.56,5.348,8.264c2.917,2.43,7.045-0.734,7.775,4.125c0.24,1.704-6.072,10.207-9.23,15.799 c-4.62,7.53-13.852,24.78-9.48,30.854c0.975,1.46,3.404,2.674,5.834,1.947c8.019-1.704,25.514-24.787,31.83-41.795l1.214-3.404 c1.701-4.37,4.374-7.285,6.561-6.316C2101.219,606.738,2099.764,611.109,2098.546,614.509z M2020.793,662.377 c8.265,3.645,21.621-20.896,26.486-29.645c3.644-7.048,6.56-12.633,6.317-13.363c-0.241-1.456-0.489-1.456-0.489-3.644 c0-3.891,0.489-7.532-2.914-8.987c-7.779-3.893-20.41,22.595-25.513,31.826C2021.52,644.152,2014.476,659.703,2020.793,662.377z"></path> <path fill="#1D7FC3" d="M2201.576,616.698c-0.97,1.942-1.216,4.374-3.89,9.475c-5.345,9.717-25.513,42.764-40.822,42.764 c-3.644,0-8.016-1.697-10.204-5.83c-3.647-7.293,0.485-21.868,3.4-30.859c-7.773,8.991-14.093,18.953-21.139,27.7 c-6.803,8.263-5.343,6.807-14.336,7.777c-0.97-0.971-4.129-1.703-5.833-7.048c-0.24-1.458-0.966-4.377,5.833-22.112 c5.832-14.332,8.262-19.924,6.564-20.651c-1.949,0-6.809,6.561-20.655,29.157c-9.233,15.307-9.96,21.866-19.923,23.084 c-2.918,0.485-6.074-0.243-8.023-2.43c-3.154-4.377-0.973-13.123,7.047-44.47c0.244-1.941-0.485-2.183,0-4.614 c0.732-5.102,3.892-13.122,7.776-15.795c1.216-0.727,3.404-1.701,6.072-0.971c2.431,0.729,4.133,0.971,4.618,3.886 c0.973,3.645-0.24,7.049-4.618,16.283c-5.345,10.688-11.904,29.884-8.987,31.103c2.187,0.729,19.439-28.673,19.439-28.673 c10.445-15.312,14.58-24.055,22.599-24.3c2.669,0,4.856,0.971,6.316,3.4c3.644,5.831-4.86,20.413-6.075,25.515 c0,0-7.289,19.682-4.374,20.895c3.642,0.244,11.663-8.502,18.952-19.436c8.261-12.876,12.392-21.143,14.336-25.272 c0.973-1.452,1.944-6.075,5.345-6.075c2.675-0.729,9.722,0.489,11.907,1.707c2.428,1.212,2.914,3.401,2.676,5.583 c-0.248,1.703-7.775,13.609-11.176,19.927c-8.267,16.521-10.934,25.996-6.562,28.185c7.289,3.886,19.679-17.007,37.417-41.306 l4.371-6.073C2200.606,607.708,2204.248,612.078,2201.576,616.698z"></path> <path fill="#1D7FC3" d="M2249.689,618.641c1.945-3.891,3.643-7.531,3.643-7.531c1.214-2.676,2.434-4.371,4.859-3.645l1.945,1.697 c-2.672,13.607-10.932,31.591-25.024,35.234c-5.345,1.456-10.937,0.975-16.039-1.214c-9.721,15.305-13.847,27.701-31.103,29.401 c-4.371,0.242-10.201-1.459-13.609-6.077c-6.072-8.505,1.948-34.985,5.349-43.496c2.188-5.827,13.851-34.014,24.296-35.715 c4.377-0.485,17.5,4.374,21.142,8.749c6.808,7.289,2.186,20.409,0.245,27.701l-1.703,6.316 C2229.28,635.89,2242.883,632.489,2249.689,618.641z M2203.279,605.519c-0.241,0.242-6.56,8.75-8.989,13.122 c-4.616,8.507-14.58,29.886-11.423,37.906c1.459,3.156,4.618,4.13,6.807,3.89c5.104-0.489,10.933-6.561,15.553-13.366 c3.642-5.348,1.939-2.674,5.827-9.232c-3.403-12.394,2.674-26.003,4.862-33.048c-1.461-2.43-4.373-4.131-6.077-4.131 C2208.383,600.907,2205.953,602.36,2203.279,605.519z"></path> <path fill="#1D7FC3" d="M2262.083,623.011c-0.729,12.151,3.646,19.438,3.646,26.487c0,8.989-2.671,17.009-14.091,22.112 c-4.619,1.944-20.171,5.59-25.755,1.216c-3.648-2.427-5.588-8.503-5.344-12.149c0.241-2.189,1.211-5.831,3.885-6.801 c0.969,0,2.187-0.492,3.889,1.454c1.457,1.461,6.316,6.32,9.962,8.262c7.288,3.647,15.792-2.189,14.822-8.262 c-1.459-7.771-5.591-15.795-4.134-33.531c-0.971-2.674-3.155-4.615-3.4-6.073c0-1.701-0.243-2.187,2.672-10.936 c1.214-3.646,3.646-14.579,9.233-14.579c1.459,0,2.431-1.456,5.104-0.485c2.185,0.485,4.374,3.404,2.911,5.831 C2267.19,599.444,2263.058,602.604,2262.083,623.011z"></path> <path fill="#1D7FC3" d="M2310.198,596.045c-2.913-13.365,20.657-40.337,32.802-53.216c8.509-9.231,23.811-22.11,35.479-23.569 c5.345-0.73,11.42,1.945,13.85,6.804c3.886,8.746,0.244,18.709-4.374,32.803l-17.011,49.326c-8.26,25.517-9.959,40.577-2.43,49.567 c1.945,2.43,4.618,3.89,7.775,3.642c16.039-0.726,44.466-42.519,65.851-131.208c0.971-4.131,0.241-4.131-0.485-6.801 c3.158-3.645,3.644-6.801,8.019-6.316c1.944,0.241,3.4,1.212,3.884,2.183c0.976,1.703-3.643,13.853-5.102,20.168 c-17.734,76.297-44.707,126.35-69.007,134.613c-5.83,1.699-16.765,1.699-24.055-6.317c-11.662-14.093-6.317-38.877,0.731-59.531 l17.734-51.271c4.132-11.905,6.809-18.222,5.104-22.113c-1.212-2.43-4.127-4.127-8.504-2.916 c-3.157,1.218-10.205,2.916-32.072,30.132c-11.18,13.848-10.936,14.824-23.814,34.019H2310.198z"></path> <path fill="#1D7FC3" d="M2435.585,650.717c0.241,3.159,2.912,5.097,5.828,5.097c9.476-0.241,19.197-16.033,35.234-43.004 l1.942-3.163c2.674-4.371,3.645-6.072,5.589-5.097c2.434,0.969,1.456,4.612,0.486,6.8c-0.486,2.189-0.729,4.376-2.187,6.563 c-7.045,11.904-18.713,31.344-27.702,41.549c-6.802,7.533-11.418,9.475-18.95,9.475c-5.589,0-9.96-3.4-11.42-6.801 c-3.886-8.504,0.483-18.71,7.53-34.503l9.721-21.872c1.943-4.616,1.943-6.561,6.804-6.802c1.942-0.241,4.129-0.241,5.349,0.241 c3.401,0.974,2.915,4.623,0.725,6.804C2458.662,608.434,2434.611,638.079,2435.585,650.717z M2470.529,562.753 c-1.945,0.977-6.564,1.704-9.964-0.485c-3.886-1.938-4.13-3.886-4.37-7.285c0-2.679,1.211-6.805,4.611-8.994 c5.35-3.645,13.365-1.212,15.068,5.345C2476.846,555.466,2476.119,560.082,2470.529,562.753z"></path> <path fill="#1D7FC3" d="M2519.171,640.753c4.861-7.535,10.938-19.196,14.092-25.27c0.732-1.215,1.221-2.674,2.677-4.374 c1.942-2.676,3.4-3.401,4.618-2.916c1.451,0,1.938,1.944,2.181,2.916c1.461,8.016-20.164,42.274-31.099,53.214 c-5.589,5.339-11.663,9.476-17.25,7.773c-7.049-2.186-8.508-9.961-9.479-15.062c-7.285,8.018-16.038,19.191-26.483,17.733 c-3.646-0.482-7.774-2.671-10.448-6.802c-3.643-5.83-3.404-15.553,8.503-38.877c7.534-13.85,24.783-38.878,35.959-39.852 c3.161-0.482,6.319,0.974,13.853,7.045l26.729-61.228c2.185-5.098,0.729-3.886,5.587-5.098c3.159-0.976,6.318,0.485,6.56,3.642 c1.214,7.287,1.702,1.456-3.161,11.905l-40.576,89.175c-10.933,23.81-7.528,22.113-3.156,24.299 C2503.379,661.402,2512.852,650.228,2519.171,640.753z M2459.155,656.547c-0.728,8.019,4.376,8.262,6.802,6.801 c4.86-2.911,11.184-8.502,22.109-27.458c3.408-5.587,10.21-19.68,12.883-27.696c-4.861-5.833-9.232-5.589-12.395-3.159 C2475.922,614.269,2460.127,642.938,2459.155,656.547z"></path> <path fill="#1D7FC3" d="M2598.87,614.509c-0.485,2.431-10.448,28.188-28.425,47.142c-4.863,5.104-12.154,8.989-17.5,8.012 c-6.562-1.452-8.261-5.823-10.207-12.146c-7.53,8.02-12.875,18.225-26.239,16.525c-4.374-0.731-7.774-2.189-9.23-6.803 c-5.104-13.607,11.414-45.683,26.484-65.12c5.827-7.29,8.985-10.208,12.631-9.724c3.648,0.487,9.72,1.22,12.636,3.649 c1.947,1.456,3.402,6.56,5.35,8.264c2.915,2.43,7.043-0.734,7.774,4.125c0.239,1.704-6.077,10.207-9.236,15.799 c-4.616,7.53-13.85,24.78-9.473,30.854c0.972,1.46,3.401,2.674,5.831,1.947c8.019-1.704,25.514-24.787,31.83-41.795l1.214-3.404 c1.7-4.37,4.372-7.285,6.561-6.316C2601.544,606.738,2600.083,611.109,2598.87,614.509z M2521.118,662.377 c8.26,3.645,21.62-20.896,26.484-29.645c3.645-7.048,6.561-12.633,6.318-13.363c-0.244-1.456-0.486-1.456-0.486-3.644 c0-3.891,0.486-7.532-2.917-8.987c-7.779-3.893-20.409,22.595-25.514,31.826C2521.844,644.152,2514.799,659.703,2521.118,662.377z"></path> <path fill="#1D7FC3" d="M2595.893,652.698c2.633,1.124,2.254,2.257,1.501,4.517c-0.377,3.953-1.691,6.4-5.081,8.28 c-1.32,0.941-3.575,1.32-6.397,0c-2.448-1.13-3.013-1.691-3.201-4.327c-0.38-3.392,1.691-7.72,6.398-9.595 C2590.992,651.001,2593.442,651.001,2595.893,652.698z"></path> <path fill="#1D7FC3" d="M2623.939,652.698c2.639,1.124,2.258,2.257,1.506,4.517c-0.377,3.953-1.697,6.4-5.08,8.28 c-1.321,0.941-3.58,1.32-6.401,0c-2.451-1.13-3.01-1.691-3.198-4.327c-0.379-3.392,1.691-7.72,6.398-9.595 C2619.044,651.001,2621.489,651.001,2623.939,652.698z"></path> <path fill="#1D7FC3" d="M2651.987,652.698c2.638,1.124,2.255,2.257,1.507,4.517c-0.376,3.953-1.69,6.4-5.082,8.28 c-1.318,0.941-3.577,1.32-6.402,0c-2.445-1.13-3.007-1.691-3.201-4.327c-0.37-3.392,1.693-7.72,6.401-9.595 C2647.094,651.001,2649.541,651.001,2651.987,652.698z"></path> </g> </svg> 